PathFileType	4	(X/Y/Z)
DataRate	CameraRate	NumFrames	NumMarkers	Units	OrigDataRate	OrigDataStartFrame	OrigNumFrames	
  120.0	  120.0	    4	     64	     mm	  120.0	      210	    239
Frame#	Time	LASI			RASI			LPSI			RPSI			RTH1			RTH2			RTH3			RLFC			RMFC			LTH1			LTH2			LTH3			LLFC			LMFC			RTB1			RTB2			RTB3			RLMAL			RMMAL			LTB1			LTB2			LTB3			LMMAL			LLMAL			RCAL			RTOE			RMT5			LCAL			LTOE			LMT5			LACR			RACR			CLAV			C7			LASH			LPSH			RASH			RPSH			RUA1			RUA2			RUA3			RLEL			RMEL			LUA1			LUA2			LUA3			LLEL			LMEL			RFAsuperior			RFAradius			RFAulna			LFAsuperior			LFAradius			LFAulna			RHJC			LHJC			RKJC			LKJC			RAJC			LAJC			RSJC			LSJC			REJC			LEJC			
		X1	Y1	Z1	X2	Y2	Z2	X3	Y3	Z3	X4	Y4	Z4	X5	Y5	Z5	X6	Y6	Z6	X7	Y7	Z7	X8	Y8	Z8	X9	Y9	Z9	X10	Y10	Z10	X11	Y11	Z11	X12	Y12	Z12	X13	Y13	Z13	X14	Y14	Z14	X15	Y15	Z15	X16	Y16	Z16	X17	Y17	Z17	X18	Y18	Z18	X19	Y19	Z19	X20	Y20	Z20	X21	Y21	Z21	X22	Y22	Z22	X23	Y23	Z23	X24	Y24	Z24	X25	Y25	Z25	X26	Y26	Z26	X27	Y27	Z27	X28	Y28	Z28	X29	Y29	Z29	X30	Y30	Z30	X31	Y31	Z31	X32	Y32	Z32	X33	Y33	Z33	X34	Y34	Z34	X35	Y35	Z35	X36	Y36	Z36	X37	Y37	Z37	X38	Y38	Z38	X39	Y39	Z39	X40	Y40	Z40	X41	Y41	Z41	X42	Y42	Z42	X43	Y43	Z43	X44	Y44	Z44	X45	Y45	Z45	X46	Y46	Z46	X47	Y47	Z47	X48	Y48	Z48	X49	Y49	Z49	X50	Y50	Z50	X51	Y51	Z51	X52	Y52	Z52	X53	Y53	Z53	X54	Y54	Z54	X55	Y55	Z55	X56	Y56	Z56	X57	Y57	Z57	X58	Y58	Z58	X59	Y59	Z59	X60	Y60	Z60	X61	Y61	Z61	X62	Y62	Z62	X63	Y63	Z63	X64	Y64	Z64	

210	1.74167	617.16553	1098.48535	-628.67517	761.33398	1106.13623	-408.35318	516.74823	1134.95398	-453.51401	559.62109	1133.11450	-381.13846	728.45648	941.31122	-311.00848	753.37317	829.97131	-331.14004	666.49396	726.52716	-292.04221	686.67352	551.20142	-294.30261	588.23376	532.47070	-369.09918	508.49576	895.22046	-632.15527	539.40247	766.48199	-645.09741	466.99539	665.75977	-587.97601	470.82227	564.03534	-595.94391	519.68878	550.34485	-482.04282	668.40381	416.82648	-356.82712	692.98407	355.68561	-284.38919	669.33813	250.35042	-347.74264	662.74530	124.86014	-286.98334	625.95111	131.04918	-359.07223	515.57330	428.55545	-575.37122	459.90250	348.14792	-610.57300	509.77551	228.91063	-575.72174	503.33063	127.43175	-529.34778	449.61624	124.95052	-589.45306	582.16852	99.59236	-289.34512	742.58905	57.33648	-437.45972	773.88171	54.43554	-324.57529	423.01422	97.65163	-519.04285	630.50745	63.17326	-615.35101	534.01453	53.28936	-680.33234	504.58017	1603.82910	-575.11963	682.45825	1603.92859	-328.27954	680.55469	1551.04224	-477.19748	556.04511	1601.80627	-417.63641	564.69489	1560.18530	-599.91284	437.16827	1542.43359	-553.13214	727.82105	1559.85364	-370.05023	634.20502	1553.62109	-278.66873	728.46600	1570.46960	-241.57118	805.99518	1538.60217	-224.96268	774.87360	1507.20825	-162.90181	892.70215	1497.02405	-72.87811	890.99036	1424.25269	-108.19434	437.86478	1575.44959	-637.21094	444.60348	1556.79504	-699.11182	384.83353	1484.97717	-674.82648	317.67108	1487.96314	-841.01215	337.10821	1410.47156	-831.30536	971.67798	1540.82104	-134.76598	1101.58569	1538.13171	-261.29871	1132.06824	1560.59314	-199.90922	397.86194	1520.14502	-890.15521	562.93884	1509.65039	-972.08398	521.83758	1519.66406	-1031.81873	677.56840	1032.14823	-399.81014	580.96513	1030.03179	-554.24159	637.45364	541.83606	-331.70090	495.25552	557.19009	-538.99336	644.34821	127.95466	-323.02779	476.47343	126.19114	-559.40042	681.01303	1556.73737	-324.35948	500.93158	1551.30945	-576.52249	891.84625	1460.63837	-90.53623	327.38965	1449.21735	-836.15875	
211	1.75000	617.23792	1098.51538	-628.72223	761.42291	1106.12561	-408.42813	516.81702	1134.94934	-453.53677	559.71533	1133.12561	-381.17377	728.50989	941.30432	-311.03821	753.37787	829.94800	-331.26117	666.50800	726.56342	-292.01205	686.68884	551.19293	-294.32532	588.32593	532.48669	-369.13629	508.53223	895.23798	-632.18787	539.48486	766.47913	-645.14087	467.07208	665.75409	-588.00525	470.87982	564.02747	-595.95825	519.73706	550.34344	-482.06656	668.40845	416.82675	-356.82419	693.00293	355.67310	-284.38437	669.38641	250.43137	-347.87433	662.73950	124.82446	-286.98926	625.94379	131.04100	-359.09811	515.52948	428.54983	-575.34039	459.94775	348.15140	-610.56543	509.78897	228.90973	-575.73175	503.35263	127.46459	-529.33514	449.65738	124.95655	-589.42609	582.15466	99.58280	-289.35803	742.61517	57.33651	-437.49829	773.86713	54.40471	-324.58832	423.01215	97.64456	-519.02618	630.51007	63.20114	-615.43091	534.02167	53.28313	-680.34070	504.68808	1603.83411	-575.14923	682.53925	1603.91296	-328.30756	680.62848	1551.07349	-477.18216	556.13812	1601.79211	-417.62860	564.90088	1560.22302	-599.94379	437.14130	1542.40381	-553.09051	727.93543	1559.88013	-370.09534	634.32526	1553.60767	-278.66739	728.59845	1570.45825	-241.51332	806.07513	1538.54724	-224.98796	774.96728	1507.22339	-162.84329	892.78711	1496.99597	-72.88615	891.07001	1424.22681	-108.21084	437.98962	1575.43518	-637.22382	444.65015	1556.77698	-699.12940	384.88962	1484.96655	-674.82690	317.75177	1487.94873	-841.06439	337.18729	1410.48462	-831.31128	971.75140	1540.78955	-134.77383	1101.68713	1538.08984	-261.27560	1132.14319	1560.58594	-199.91148	397.92719	1520.13892	-890.13129	563.00848	1509.78626	-972.48389	521.93396	1519.64246	-1031.83777	677.65616	1032.14086	-399.87780	581.03400	1030.05272	-554.29779	637.50739	541.83981	-331.73080	495.30844	557.18546	-539.01241	644.34164	127.93273	-323.04369	476.50500	126.21057	-559.38062	681.13034	1556.74390	-324.38136	501.02109	1551.31342	-576.51715	891.92856	1460.61139	-90.54850	327.46953	1449.21667	-836.18784	
212	1.75833	617.29096	1098.56079	-628.72717	761.46820	1106.10669	-408.45096	516.87219	1134.95386	-453.54071	559.78241	1133.12817	-381.19067	728.56055	941.25971	-311.09305	753.41394	829.94714	-331.28152	666.57678	726.55225	-292.06470	686.75604	551.22931	-294.32507	588.37701	532.47308	-369.12021	508.62720	895.20575	-632.21979	539.55096	766.47308	-645.16333	467.09430	665.76044	-587.99011	470.93951	564.02075	-595.99872	519.78406	550.32733	-482.08139	668.47461	416.82922	-356.81399	693.03094	355.69687	-284.38471	669.41840	250.45254	-347.94110	662.74323	124.84700	-286.98825	625.97730	131.02121	-359.11282	515.64801	428.53494	-575.38440	459.99545	348.15381	-610.60730	509.82663	228.88649	-575.71460	503.33838	127.43501	-529.32849	449.70068	124.96074	-589.45673	582.17255	99.60760	-289.34000	742.61932	57.37490	-437.56061	773.89111	54.41965	-324.60153	423.02982	97.63760	-519.04578	630.51917	63.20099	-615.33435	534.06152	53.25980	-680.36108	504.77325	1603.83191	-575.17786	682.59460	1603.93140	-328.28122	680.71649	1551.05774	-477.19867	556.18335	1601.77625	-417.63489	565.01556	1560.09106	-600.17004	437.23877	1542.40027	-553.13153	728.05975	1559.83875	-370.19424	634.38824	1553.59180	-278.64767	728.66919	1570.41919	-241.52431	806.15637	1538.55554	-224.95561	775.03247	1507.20642	-162.84969	892.86407	1496.96912	-72.88933	891.17279	1424.18396	-108.20737	438.02875	1575.45776	-637.16949	444.74277	1556.77405	-699.14911	384.96817	1484.96448	-674.81311	317.79013	1487.98731	-841.01587	337.26907	1410.49756	-831.31867	971.89160	1540.77319	-134.66782	1101.74097	1538.10181	-261.26367	1132.21936	1560.55347	-199.90480	397.92642	1520.20361	-890.10248	563.08954	1509.77710	-972.52466	522.02112	1519.61243	-1031.89063	677.70234	1032.12799	-399.90909	581.07836	1030.08399	-554.32854	637.56653	541.85120	-331.72264	495.36179	557.17404	-539.04005	644.36026	127.93410	-323.05054	476.51953	126.19788	-559.39261	681.22400	1556.71527	-324.42096	501.12717	1551.24567	-576.65079	892.01843	1460.57654	-90.54835	327.52960	1449.24243	-836.16727	
213	1.76667	617.33289	1098.59839	-628.72131	761.53735	1106.10046	-408.48547	516.92304	1134.95325	-453.58417	559.82648	1133.12183	-381.22015	728.61426	941.27350	-311.11563	753.43567	829.89679	-331.35831	666.62500	726.52600	-292.11105	686.76739	551.19617	-294.35312	588.45416	532.48657	-369.16693	508.71549	895.23328	-632.25726	539.65344	766.47681	-645.21948	467.20670	665.74554	-588.05127	470.99615	564.04822	-596.01483	519.85590	550.35095	-482.07913	668.49176	416.83102	-356.83853	693.04327	355.69861	-284.39569	669.66986	250.71976	-349.15079	662.78302	124.85513	-286.99777	625.98938	131.01515	-359.10217	515.70496	428.53116	-575.35797	460.01706	348.16614	-610.60999	509.82385	228.88220	-575.73352	503.36948	127.44327	-529.32489	449.69315	124.95201	-589.45300	582.16754	99.60991	-289.36679	742.64423	57.31432	-437.52823	773.90515	54.38612	-324.62991	423.04971	97.63013	-519.03461	630.52283	63.19976	-615.37030	534.04822	53.27394	-680.33856	504.85788	1603.85876	-575.14514	682.69958	1603.92102	-328.30222	680.78552	1551.04394	-477.22775	556.28363	1601.78394	-417.62164	565.11188	1560.10303	-600.13220	437.33035	1542.40369	-553.13000	728.14288	1559.84082	-370.15903	634.46100	1553.60999	-278.62515	728.75201	1570.41394	-241.53398	806.24469	1538.53638	-224.95908	774.85425	1507.64392	-162.44315	892.94427	1496.90869	-72.85917	891.26508	1424.15625	-108.23924	438.16644	1575.47083	-637.25012	444.86276	1556.76843	-699.16748	384.99795	1484.98608	-674.82983	317.85309	1487.97437	-841.04779	337.31583	1410.48450	-831.32507	971.97699	1540.75354	-134.61787	1101.84546	1538.14319	-261.16544	1132.28955	1560.52551	-199.92470	398.05585	1520.14966	-890.12433	563.17059	1509.76746	-972.55200	522.11609	1519.60205	-1031.90417	677.74475	1032.12548	-399.93639	581.14266	1030.10167	-554.37087	637.61078	541.84137	-331.76002	495.42603	557.19959	-539.04698	644.38620	127.93514	-323.04997	476.53131	126.19764	-559.38895	681.30194	1556.72540	-324.39209	501.22112	1551.25336	-576.63110	892.10468	1460.53247	-90.54921	327.58446	1449.22943	-836.18643	
